<?xml version="1.0" encoding="UTF-8" standalone="no"?>
<!-- Created with Inkscape (http://www.inkscape.org/) -->

<svg
   xmlns:dc="http://purl.org/dc/elements/1.1/"
   xmlns:cc="http://creativecommons.org/ns#"
   xmlns:rdf="http://www.w3.org/1999/02/22-rdf-syntax-ns#"
   xmlns:svg="http://www.w3.org/2000/svg"
   xmlns="http://www.w3.org/2000/svg"
   xmlns:sodipodi="http://sodipodi.sourceforge.net/DTD/sodipodi-0.dtd"
   xmlns:inkscape="http://www.inkscape.org/namespaces/inkscape"
   version="1.1"
   id="svg2"
   width="746.31897"
   height="184.22501"
   viewBox="0 0 746.31895 184.22501"
   sodipodi:docname="logo.svg"
   inkscape:version="0.92.3 (2405546, 2018-03-11)"
   inkscape:export-filename="/home/andrea/Workspace/git/video_ludo/logo.svg.png"
   inkscape:export-xdpi="32.157822"
   inkscape:export-ydpi="32.157822">
  <metadata
     id="metadata8">
    <rdf:RDF>
      <cc:Work
         rdf:about="">
        <dc:format>image/svg+xml</dc:format>
        <dc:type
           rdf:resource="http://purl.org/dc/dcmitype/StillImage" />
        <dc:title />
      </cc:Work>
    </rdf:RDF>
  </metadata>
  <defs
     id="defs6" />
  <sodipodi:namedview
     pagecolor="#ffffff"
     bordercolor="#666666"
     borderopacity="1"
     objecttolerance="10"
     gridtolerance="10"
     guidetolerance="10"
     inkscape:pageopacity="0"
     inkscape:pageshadow="2"
     inkscape:window-width="1916"
     inkscape:window-height="1041"
     id="namedview4"
     showgrid="false"
     width="492.683px"
     inkscape:zoom="0.50381358"
     inkscape:cx="471.44822"
     inkscape:cy="-96.537772"
     inkscape:window-x="0"
     inkscape:window-y="18"
     inkscape:window-maximized="0"
     inkscape:current-layer="svg2" />
  <g
     id="g1584"
     transform="translate(7.9773387,-226.77403)">
    <path
       sodipodi:nodetypes="sssscssssssssccccc"
       inkscape:connector-curvature="0"
       id="rect857-3-7-5-8"
       d="m 646.75752,287.79485 c -29.5775,0 -53.3882,23.8108 -53.3882,53.3881 0,20.5283 8.6661,33.8729 21.5679,44.0144 1.9575,1.5387 -0.062,15.60302 3.1285,16.87902 3.7531,1.5012 9.6322,1.8993 11.1815,-8.9273 4.0478,-0.2875 14.2785,1.4221 17.5103,1.4221 h 37.1505 c 7.4343,0 12.5018,0.8988 18.921,-1.8233 1.6083,-0.682 -1.1522,11.2517 7.5174,11.2111 4.6023,-0.022 3.1587,-16.78632 4.6656,-17.84072 14.5207,-10.1609 22.2841,-26.5618 22.2841,-44.9353 0,-29.5773 -23.8108,-53.3881 -53.3881,-53.3881 z m -3.0701,27.927 c 14.2342,-2e-4 25.7735,11.539 25.7732,25.7733 3e-4,14.2342 -11.539,25.7734 -25.7732,25.7732 -14.2343,2e-4 -25.7735,-11.539 -25.7733,-25.7732 -2e-4,-14.2343 11.539,-25.7735 25.7733,-25.7733 z"
       style="opacity:1;fill:#2affd5;fill-opacity:1;stroke:#000000;stroke-width:0;stroke-linecap:square;stroke-linejoin:round;stroke-miterlimit:4;stroke-dasharray:none;stroke-dashoffset:0;stroke-opacity:1" />
    <path
       sodipodi:nodetypes="sccccscsccccccc"
       inkscape:connector-curvature="0"
       id="path817-3-5-9-7-4-7"
       d="m 634.17172,407.79857 c -14.3416,-2.1979 -25.9551,-8.1589 -36.5309,-18.7506 -19.479,-19.50825 -24.1068,-46.48925 -12.2369,-71.34424 7.4071,-15.5101 24.4329,-29.1701 42.0902,-33.7691 18.0291,-4.696 39.5498,-0.034 54.0045,11.6984 16.796,13.6332 24.1297,28.6928 24.1297,49.55049 0,17.7986 -5.6782,31.613 -18.2643,44.43555 -13.6663,13.9231 -34.5015,21.0439 -53.1923,18.1795 z m 20.7527,-44.05675 c 6.9208,-4.2982 9.99,-10.0234 9.9892,-18.6342 -7e-4,-8.6309 -2.9156,-14.4606 -9.2334,-18.46739 -9.2947,-5.8944 -19.9576,-5.3241 -28.2498,1.51109 -5.3023,4.3706 -7.4232,9.2692 -7.3907,17.0707 0.038,9.1603 3.1607,14.882 10.445,19.1387 7.9957,4.6724 16.2566,4.4631 24.4397,-0.6189 z"
       style="fill:#0066ff;stroke-width:1.14151549" />
    <circle
       r="25.772903"
       cy="341.49463"
       cx="643.4043"
       id="path864-67-1-7-1"
       style="opacity:1;fill:#37c8ab;fill-opacity:1;stroke:#000000;stroke-width:0;stroke-linecap:square;stroke-linejoin:round;stroke-miterlimit:4;stroke-dasharray:none;stroke-dashoffset:0;stroke-opacity:1" />
    <circle
       r="14.444156"
       cy="341.77795"
       cx="643.68762"
       id="path864-6-5-8-4-7"
       style="opacity:1;fill:#aaeeff;fill-opacity:1;stroke:#000000;stroke-width:0;stroke-linecap:square;stroke-linejoin:round;stroke-miterlimit:4;stroke-dasharray:none;stroke-dashoffset:0;stroke-opacity:1" />
    <rect
       ry="3.6818433"
       y="321.11469"
       x="682.32898"
       height="9.6294365"
       width="30.021185"
       id="rect896-6-2-4-2"
       style="opacity:1;fill:#37c8ab;fill-opacity:1;stroke:#000000;stroke-width:0;stroke-linecap:square;stroke-linejoin:round;stroke-miterlimit:4;stroke-dasharray:none;stroke-dashoffset:0;stroke-opacity:1" />
    <rect
       ry="3.6818433"
       y="352.13586"
       x="682.45178"
       height="9.6294365"
       width="30.021185"
       id="rect896-5-2-0-3-7"
       style="opacity:1;fill:#37c8ab;fill-opacity:1;stroke:#000000;stroke-width:0;stroke-linecap:square;stroke-linejoin:round;stroke-miterlimit:4;stroke-dasharray:none;stroke-dashoffset:0;stroke-opacity:1" />
    <path
       sodipodi:nodetypes="ccccc"
       inkscape:connector-curvature="0"
       id="path913-1-3-0-2"
       d="m 654.34472,345.71685 c -0.6542,0.7784 1.1211,-2.3256 -6.3531,-9.7013 -6.7925,-4.5055 -11.1319,-3.3104 -10.4777,-4.0889 0.6544,-0.7784 6.198,-2.5539 12.4882,0.7675 4.8552,3.4291 4.9969,12.2442 4.3426,13.0227 z"
       style="opacity:1;fill:#ffffff;fill-opacity:1;stroke:#000000;stroke-width:0;stroke-linecap:square;stroke-linejoin:round;stroke-miterlimit:4;stroke-dasharray:none;stroke-dashoffset:0;stroke-opacity:1" />
    <path
       sodipodi:nodetypes="cccccscsccccccccscccccccccccsccscccccccccccscccccscccccccccsccc"
       inkscape:connector-curvature="0"
       id="path817-3-5-9-78-2"
       d="m 183.54907,408.95797 c -5.79809,-1.4387 -8.6866,-3.55 -10.3703,-7.5798 -2.4438,-5.8488 -2.3925,-147.12662 0.056,-152.98552 2.1564,-5.1612 7.72341,-7.54759 17.75251,-7.61039 9.2498,-0.058 15.19164,1.78099 18.22844,5.64159 2.2439,2.8526 2.3009,4.4902 2.3009,66.1253 v 63.2002 h 34.6459 c 22.4124,0 35.9275,0.4468 38.2754,1.2652 2.0302,0.7078 4.3687,2.6948 5.3072,4.5094 1.998,3.8637 2.2605,17.95192 0.4102,22.01302 -2.6187,5.7473 -3.7605,5.873 -55.2377,6.079 -26.369,0.1061 -49.48464,-0.1905 -51.36814,-0.658 z m 213.32615,0 c -7.1836,-1.2103 -10.565,-3.9535 -11.4133,-9.2591 -0.3999,-2.5007 -0.8537,-4.5466 -1.0085,-4.5466 -0.1549,0 -2.2724,1.8582 -4.7055,4.1293 -2.4333,2.2711 -6.9926,5.3481 -10.1318,6.8379 -10.7056,5.0806 -28.0919,3.1592 -40.1198,-4.4339 -6.4638,-4.0804 -15.9793,-14.92632 -19.8872,-22.66822 -5.8996,-11.6868 -6.7362,-17.9375 -6.7547,-50.4713 -0.022,-38.4238 0.3462,-39.265 17.6766,-40.365 9.5414,-0.6056 15.9921,1.3401 19.3552,5.8384 2.1693,2.9015 2.3737,5.1828 2.9043,32.4358 0.4857,24.9472 0.8659,29.8541 2.5512,32.9347 3.2074,5.8626 8.364,8.8026 16.2353,9.2561 9.4414,0.5442 16.1412,-2.8427 19.7397,-9.9788 2.4444,-4.8476 2.5684,-6.3775 2.5684,-31.7137 0,-29.1652 0.6119,-32.6414 6.4167,-36.4465 3.9396,-2.5827 20.6811,-2.9352 26.3217,-0.5542 7.1378,3.0129 7.2146,3.6404 7.2146,58.9119 0,54.40972 -0.042,54.78322 -6.583,58.10872 -3.9552,2.0109 -14.2653,3.0148 -20.3799,1.9845 z m 137.1192,0 c -5.0727,-1.2713 -8.3353,-3.6567 -9.7835,-7.1527 l -1.2887,-3.1113 -5.6992,3.9202 c -7.464,5.1344 -13.0898,6.5346 -24.3355,6.0566 -13.1215,-0.5576 -23.5053,-5.7654 -34.3567,-17.2315 -12.2266,-12.91902 -17.5307,-25.60642 -17.5564,-41.99492 -0.026,-16.6206 5.3873,-29.9733 17.3417,-42.7738 12.9244,-13.8393 28.1843,-19.9712 43.5826,-17.5128 7.6109,1.2151 12.4522,3.3692 16.8828,7.5115 l 3.0514,2.8529 0.3732,-28.9527 c 0.4162,-32.28909 0.9221,-34.66169 8.0245,-37.61739 4.7335,-1.97 19.7508,-2.0392 24.3789,-0.113 1.9208,0.7996 4.4892,3.1016 5.7075,5.1154 2.1359,3.5304 2.2153,6.48509 2.2153,82.47639 0,73.29992 -0.1407,79.02932 -2.0084,81.88002 -1.1047,1.6859 -3.4162,3.7818 -5.1368,4.6578 -3.8423,1.956 -16.7399,3.1549 -21.3927,1.9888 z m -23.4804,-41.73362 c 7.3911,-3.822 12.3441,-13.7573 10.8441,-21.7522 -1.035,-5.5164 -6.7121,-12.9591 -11.3697,-14.9051 -5.5492,-2.3186 -14.0839,-2.0559 -18.3833,0.5657 -1.9677,1.1999 -5.0498,4.1116 -6.8491,6.4706 -2.7925,3.661 -3.2713,5.331 -3.2713,11.4063 0,6.2316 0.4362,7.6634 3.5056,11.504 1.9281,2.4127 5.2671,5.2849 7.4198,6.3826 4.7698,2.4322 13.7213,2.5944 18.1039,0.3281 z"
       style="fill:#0066ff;stroke-width:1.14151549" />
    <path
       sodipodi:nodetypes="cssccccscccccccsccsccccccscccsccsscscsssccccscscsccccccscsccccsccccccccsccscccccccccccccscscsccscscscscccscccscccss"
       inkscape:connector-curvature="0"
       id="path819-9-2-6-6"
       d="m 179.73767,405.60447 c -8.7636,-3.9789 -8.3516,0.1628 -8.3516,-83.96612 0,-82.60249 -0.2618,-79.5439 7.1537,-83.59659 5.13511,-2.8064 22.6597,-2.7772 27.93715,0.047 8.0332,4.29819 7.6794,1.1913 8.0473,70.65639 l 0.3312,62.5496 h 35.0558 c 44.6302,0.01 44.3024,-0.1345 44.1044,18.83072 -0.1016,9.6975 -2.3508,14.6429 -7.4721,16.4283 -2.4438,0.8519 -19.7029,1.257 -52.8298,1.2402 -45.86395,-0.023 -49.52405,-0.1721 -53.97604,-2.1934 z m 106.12755,-1.6422 c 1.1219,-0.5402 2.7914,-2.4354 3.71,-4.2117 2.0546,-3.9732 2.1754,-16.54362 0.1965,-20.46562 -2.5367,-5.0279 -6.7843,-5.5739 -43.9017,-5.6432 l -34.5309,-0.064 v -63.1001 c 0,-69.9779 0.3513,-66.713 -7.5324,-70.007 -4.98304,-2.08209 -17.72854,-2.03759 -22.79554,0.08 -7.4885,3.129 -7.3421,1.511 -7.3421,81.0887 0,76.90662 0.036,77.40592 5.8964,80.60782 1.4657,0.801 4.7197,1.8185 7.231,2.2613 6.4615,1.1392 96.60064,0.6431 99.06874,-0.5453 z m 59.318,2.1295 c -3.9233,-0.8523 -9.6851,-2.9384 -12.8039,-4.6359 -12.3326,-6.7123 -24.0115,-22.42692 -27.9742,-37.64112 -2.4908,-9.5628 -2.5522,-68.6953 -0.077,-73.4832 2.3711,-4.5853 9.0663,-6.9343 19.758,-6.9322 10.4855,0 15.6751,2.1556 18.9784,7.8751 2.014,3.4871 2.308,6.8512 2.8933,33.104 0.72,32.2993 0.9923,33.4965 8.5249,37.4982 5.245,2.7863 15.18,2.5338 20.0974,-0.5108 8.122,-5.0286 8.489,-6.6052 9.1271,-39.2125 0.6361,-32.5035 0.9706,-33.9454 8.6136,-37.1388 5.3198,-2.2228 19.8405,-2.0887 25.6527,0.2368 8.7155,3.4873 8.5406,2.2506 8.5406,60.4091 0,47.20212 -0.1651,51.67042 -2.0135,54.49142 -3.8883,5.9341 -7.12,7.1002 -19.6786,7.1002 -12.7501,0 -16.6599,-1.4716 -19.1148,-7.1948 -0.7264,-1.6934 -1.4494,-3.2687 -1.6067,-3.5008 -0.1573,-0.2321 -2.9449,1.5298 -6.1947,3.9154 -9.5719,7.0265 -18.8854,8.626 -32.7233,5.6199 z m 21.5487,-3.0138 c 2.4237,-0.7262 7.4943,-3.8083 11.2679,-6.8491 3.7736,-3.0408 7.3723,-5.5288 7.9969,-5.5288 0.6248,0 1.1358,1.5124 1.1358,3.3609 0,1.9071 1.1918,4.7464 2.7549,6.5637 2.6953,3.1335 3.0163,3.2029 14.8138,3.2029 11.6559,0 12.1646,-0.1057 15.224,-3.1642 l 3.1651,-3.1642 0.3496,-49.34552 c 0.2364,-33.3769 -0.055,-50.7287 -0.9,-53.6196 -1.7883,-6.1166 -6.228,-8.1747 -17.7641,-8.2348 -7.0304,-0.037 -9.9286,0.4411 -12.3666,2.0386 -5.8083,3.8057 -6.4182,7.275 -6.4182,36.5089 0,25.6519 -0.1016,26.8747 -2.6286,31.6535 -6.9731,13.1864 -29.6448,14.0431 -37.4948,1.4167 -2.5894,-4.1649 -2.7034,-5.3432 -3.2542,-33.6303 -0.5354,-27.4981 -0.719,-29.5135 -2.9647,-32.5332 -3.047,-4.0969 -11.315,-6.4223 -19.6785,-5.5347 -8.0472,0.8541 -12.2151,3.1523 -13.7615,7.5882 -1.9479,5.5878 -1.6328,56.731 0.409,66.3659 3.0131,14.219 13.1122,29.32302 24.786,37.06942 9.3105,6.1782 25.3448,8.8268 35.3282,5.8357 z m 120.2832,3.643 c -19.1097,-4.1406 -37.7384,-22.01352 -44.0634,-42.27572 -3.2092,-10.2811 -3.1983,-27.4221 0.024,-37.7524 4.2308,-13.5629 16.9602,-29.2701 29.7984,-36.7692 7.6611,-4.475 18.5337,-6.935 27.1108,-6.134 7.3138,0.6829 16.2459,3.9353 19.9069,7.2483 1.9527,1.7672 2.0393,0.6934 2.0393,-25.2698 0,-30.18299 0.6094,-33.27059 7.2884,-36.92819 5.0533,-2.7673 23.7772,-2.7505 28.8511,0.026 7.4389,4.0707 7.3423,2.8241 6.9868,90.12089 -0.3157,77.48112 -0.3473,78.43372 -2.7051,81.61842 -3.4058,4.6002 -7.8044,6.377 -17.2942,6.986 -9.7103,0.6232 -17.3003,-1.6698 -20.2058,-6.1042 l -1.8301,-2.7931 -4.2555,2.6612 c -2.3405,1.4636 -6.0154,3.2656 -8.1665,4.0044 -5.3411,1.8344 -17.9337,2.5644 -23.4853,1.3615 z m 26.3266,-6.0267 c 3.1786,-1.6319 6.452,-3.7776 7.2743,-4.7683 2.2687,-2.7337 4.209,-2.1731 5.8037,1.6771 0.7924,1.9131 2.884,4.2246 4.6479,5.1368 4.1271,2.1342 18.1397,2.1745 23.1844,0.067 7.9737,-3.3317 7.5324,1.6702 7.5324,-85.36382 0,-58.3969 -0.3487,-79.22209 -1.3638,-81.44999 -2.1049,-4.62 -6.5055,-6.2464 -16.9005,-6.2464 -10.3949,0 -14.7955,1.6264 -16.9004,6.2464 -0.9411,2.0654 -1.3638,11.83259 -1.3638,31.51309 0,24.7832 -0.2333,28.6095 -1.7804,29.2032 -1.0511,0.4034 -3.0384,-0.4931 -4.8515,-2.1885 -6.2877,-5.8797 -10.223,-7.1277 -22.4767,-7.1277 -10.3626,0 -12.0468,0.3129 -18.2643,3.3928 -8.9159,4.4167 -24.0303,19.3964 -28.2505,27.9989 -13.8097,28.1497 -4.4035,61.0888 22.2905,78.05762 9.5374,6.0628 14.937,7.5541 25.9365,7.1635 7.7586,-0.2755 10.861,-0.9391 15.4822,-3.3115 z m -15.9795,-34.10982 c -16.2706,-3.8031 -22.0003,-23.5633 -10.4989,-36.2078 3.7737,-4.1488 8.4292,-6.0699 14.833,-6.1209 7.981,-0.064 13.6087,2.5505 17.7254,8.2334 12.1295,16.7443 -2.113,38.7576 -22.0595,34.0953 z m 12.3694,-3.7304 c 4.7841,-1.9989 9.7247,-8.3722 10.5811,-13.6494 1.0712,-6.6013 -0.5303,-11.8136 -5.1086,-16.6264 -7.2676,-7.6398 -17.95,-7.7492 -25.4388,-0.2604 -7.4282,7.4281 -8.0682,17.3934 -1.6099,25.0687 5.508,6.5458 13.9036,8.6733 21.5762,5.4675 z"
       style="fill:#000000;stroke-width:1.14151549" />
    <path
       id="path819-9-6-8-1"
       d="m 639.86142,280.73923 c -13.2197,0.0689 -20.9791,2.60937 -32.1133,9.88281 -19.5731,12.7861 -29.5742,31.0061 -29.5742,53.87891 0,18.7644 5.696,32.2666 19.2754,45.69142 7.2283,7.1459 14.5414,12.0193 22.9063,15.1933 0.9758,0.5349 1.8722,0.8985 2.375,0.8985 0.038,0 0.08,-0.011 0.1191,-0.014 1.7265,0.5723 3.4946,1.0841 5.3223,1.5273 19.2279,4.6624 39.3875,0.018 54.9629,-12.3574 h 19.8671 v 2.9199 c 0,6.3395 6.6192,9.7538 11.4024,5.8809 2.1941,-1.7766 2.7899,-3.545 3.2031,-9.4883 0.4878,-7.0145 0.753,-7.56283 6.6953,-13.83203 6.8236,-7.1988 11.1786,-15.55141 12.9356,-24.81641 1.4705,-7.768 1.4717,-21.96957 0,-29.85547 -2.8153,-15.08519 -13.5785,-28.65445 -28.2364,-35.59765 l -7.7148,-3.65625 -29.6895,-0.34375 c -1.7834,-0.91449 -3.6246,-1.77902 -5.5273,-2.58594 -5.0417,-2.1381 -9.0179,-2.76974 -20.1836,-3.21094 -2.1371,-0.0844 -4.1369,-0.12508 -6.0254,-0.11523 z m 1.916,2.37305 c 7.2587,-0.15779 14.5016,1.0152 21.4278,3.45703 -20.5122,-0.17423 -26.9542,0.15566 -32.1407,1.48437 -17.0998,4.3807 -30.3746,17.5339 -34.7851,34.4668 -1.9777,7.5927 -2.2738,28.06335 -0.5156,35.68945 1.9102,8.2857 6.92,17.14265 13.3047,23.52735 5.9524,5.9519 6.0332,6.12968 6.0332,12.92579 0,2.1945 0.051,3.7233 0.2343,4.8984 -41.8935,-21.50859 -47.3085,-79.36794 -6.0273,-106.26365 10.1113,-6.58775 21.3058,-9.94289 32.4687,-10.18554 z m 18.8848,5.72265 c 2.5089,0.0136 5.3779,0.0535 8.3145,0.0957 5.1594,2.42726 10.076,5.60966 14.6191,9.52343 -4.4442,-0.0359 -9.9062,-0.043 -17.125,-0.043 -30.9329,0 -32.7963,0.121 -37.8711,2.4668 -7.5624,3.495 -15.2095,10.97884 -18.8926,18.49024 -2.7587,5.6259 -3.2085,8.05642 -3.5683,19.23242 -0.3221,10.0075 0.035,14.21416 1.6406,19.31836 3.5692,11.3474 12.1161,20.28207 23.3379,24.39257 v -0.002 c 5.7566,2.1086 8.6478,2.26586 37.0644,2.00195 l 22.3262,-0.20703 c -2.7012,3.2387 -5.7674,6.2275 -9.1719,8.9082 -4.6766,0.083 -9.6515,0.1445 -14.8652,0.1445 -15.382,0 -30.4083,-0.4163 -33.3906,-0.9257 -5.2677,-0.8997 -5.4219,-0.8465 -5.4219,1.9218 0,1.5671 -0.501,4.1684 -1.1133,5.7793 -0.7557,1.9875 -1.8793,2.8561 -3.7519,2.916 -1.2131,-0.4531 -2.4075,-0.9276 -3.5704,-1.4355 -1.2888,-1.5777 -1.8378,-4.5297 -1.8378,-9.2773 0,-6.06645 -0.2114,-6.50514 -5.5118,-11.46294 -12.6269,-11.8111 -17.8727,-31.9358 -13.8886,-53.2832 2.6878,-14.4022 12.897,-27.83981 25.5508,-33.63281 8.6905,-3.97872 15.3404,-5.03988 37.1269,-4.92188 z m 15.2422,0.20313 c 21.0831,0.3684 24.0383,0.72936 29.666,2.95117 12.7636,5.0389 22.6234,15.28923 27.4082,28.49023 3.4718,9.5787 3.356,30.94399 -0.2246,41.27539 -2.8929,8.3473 -8.7063,16.90549 -14.4687,21.30079 -3.6164,2.7583 -3.8711,3.38806 -3.8711,9.57223 0,8.2943 -0.7359,10.2324 -3.8887,10.2324 -3.656,0 -5.2442,-2.1646 -5.2442,-7.1484 v -4.4062 l -5.4218,0.9258 c -1.6165,0.2761 -6.9042,0.5174 -13.7364,0.6875 0.7924,-0.709 1.5761,-1.432 2.3399,-2.1836 2.264,-2.22801 4.2787,-4.43885 6.0859,-6.66997 l 4.4551,-0.041 7.1738,-3.89063 c 8.4274,-4.5696 13.162,-9.59621 17.252,-18.31641 2.7032,-5.7632 2.9687,-7.6107 2.9687,-20.625 0,-13.8566 -0.1163,-14.53083 -3.7578,-21.92773 -4.0843,-8.2964 -9.793,-13.9655 -18.3457,-18.2207 -3.4919,-1.73717 -5.2953,-2.32041 -15.8047,-2.52149 -3.7029,-3.52299 -7.9049,-6.70136 -12.5859,-9.48437 z m -9.4336,11.65625 c 8.961,0 15.0759,0.0153 19.7031,0.0996 0.2907,0.27766 0.586,0.54599 0.8731,0.83007 5.1504,5.09649 9.1356,10.77868 12.0273,16.78711 -0.5898,-0.007 -1.1276,-0.0234 -1.7598,-0.0234 -10.7326,0 -11.7384,0.19743 -14.3437,2.80273 -3.3971,3.3971 -3.5734,6.70001 -0.5195,9.75391 2.0183,2.0183 3.8047,2.2832 15.4101,2.2832 2.4458,0 4.3773,-0.0172 6.0449,-0.0547 1.0343,5.52562 1.2823,11.14516 0.7774,16.69141 -1.8501,-0.0617 -4.1356,-0.084 -7.043,-0.084 -12.3989,0 -13.2249,0.14435 -15.289,2.69335 -2.7996,3.4569 -2.7684,6.42312 0.1,9.29102 2.0282,2.0282 3.8065,2.2832 15.9179,2.2832 1.2478,0 2.294,-0.005 3.3282,-0.01 -2.0708,6.17148 -5.1112,12.04514 -9.0586,17.35547 -4.422,0.32425 -11.1572,0.42251 -23.3145,0.52929 -15.068,0.1323 -29.5312,-0.20374 -32.1406,-0.74804 -11.1304,-2.3213 -20.3739,-9.77753 -25.3555,-20.45313 -2.6614,-5.7035 -2.9762,-7.76494 -2.9902,-19.52734 -0.014,-12.5715 0.1508,-13.48662 3.7324,-20.76172 4.2273,-8.5869 8.2751,-12.49755 17.3711,-16.78125 6.2619,-2.9467 6.3586,-2.95703 36.5293,-2.95703 z m 24.4316,0.24023 c 6.5423,0.29381 8.4566,0.95208 11.834,2.47852 7.5547,3.4143 16.4814,12.95199 18.9766,20.27539 2.4995,7.3358 2.4995,27.72475 0,35.06054 -2.5052,7.35231 -11.4264,16.86885 -18.9766,20.24415 -2.0134,0.90008 -3.539,1.49709 -5.7871,1.9082 3.7224,-5.23782 6.3382,-10.69946 8.082,-16.90039 6.4864,-0.12826 7.4401,-0.62277 8.7481,-2.49024 2.4511,-3.4995 2.2221,-6.97824 -0.627,-9.55664 -1.224,-1.10774 -2.5253,-1.65855 -5.6816,-1.92968 0.4811,-5.87116 0.2521,-11.54446 -0.6426,-16.9629 3.8718,-0.2392 5.1321,-0.80594 6.4434,-2.11718 2.3011,-2.3011 2.9603,-6.35418 1.4101,-8.67578 -1.5781,-2.36355 -4.9341,-3.44743 -12.1191,-3.76563 -2.8029,-6.44485 -6.7188,-12.34417 -11.6602,-17.56836 z m -47.6523,13.5 c -10.1451,0.42481 -19.333,6.37438 -23.7207,15.93945 -2.5151,5.4827 -2.8003,16.19564 -0.5742,21.52344 2.3279,5.5714 8.6409,12.23049 13.8301,14.58789 6.0614,2.7541 16.8338,2.74307 22.8398,-0.0234 23.6106,-10.8757 20.0275,-45.99582 -5.2461,-51.41602 -2.396,-0.51384 -4.7877,-0.70936 -7.1289,-0.61133 z m 0.8828,2.85352 c 6.1291,-0.0274 12.3207,2.13917 17.0586,6.58203 13.2058,12.3831 7.7976,36.51945 -9.2441,41.25195 -6.6733,1.8532 -11.7884,1.42806 -18.0098,-1.49414 -6.7118,-3.1525 -8.7659,-5.25005 -11.8984,-12.15625 -3.9537,-8.716 -2.6045,-18.09399 3.7031,-25.74609 4.5793,-5.5555 11.4443,-8.40648 18.3906,-8.4375 z m 60.8145,4.65234 c 5.6045,0.0124 6.3011,0.50747 7.2148,2.21485 1.0387,1.94079 0.9047,2.84226 -0.6875,4.60156 -1.0403,1.14952 -2.1743,1.70936 -5.0723,1.97265 -0.6137,-3.01515 -1.4434,-5.94321 -2.4746,-8.77929 0.3223,-0.002 0.7251,-0.0104 1.0196,-0.01 z m -4.295,0.0547 c 1.1695,2.91067 2.0972,5.88223 2.7832,8.89062 -1.3853,0.04 -2.9753,0.0586 -4.9609,0.0586 -12.2797,0 -15.3497,-1.20459 -14.7051,-5.77149 0.3891,-2.7558 0.5577,-2.79412 13.7481,-3.11133 1.1763,-0.0283 2.1537,-0.0469 3.1347,-0.0664 z m -55.2226,4.38281 c -2.9303,0 -6.866,0.79538 -8.7461,1.76758 -10.0815,5.2134 -10.4858,20.84571 -0.6934,26.81641 6.7982,4.1452 16.1497,2.30952 21.2481,-4.17188 1.759,-2.2363 2.3828,-4.67056 2.3828,-9.28906 0,-5.7481 -0.3615,-6.62111 -4.4317,-10.69141 -3.8821,-3.882 -5.0929,-4.43164 -9.7597,-4.43164 z m -1.4063,2.43359 c 2.1404,-0.0369 4.3585,0.47357 6.502,1.58204 9.1351,4.7239 8.7328,18.98139 -0.6465,22.90039 -6.1826,2.5833 -9.4743,1.96725 -14.5,-2.71485 -4.0463,-3.7697 -5.058,-9.12209 -2.6719,-14.15039 2.2818,-4.80837 6.6076,-7.53588 11.3164,-7.61719 z m 60.1368,23.9668 c 0.069,3.1e-4 0.1154,0.003 0.1835,0.004 -0.4198,3.01796 -1.0623,6.00275 -1.9199,8.93164 -1.3222,0.0323 -2.7712,0.0508 -4.5039,0.0508 -12.7032,0 -14.8423,-0.89759 -14.1289,-5.92969 0.3615,-2.5507 0.774,-2.64163 13.4863,-2.95703 2.8349,-0.0703 5.0842,-0.10755 6.8829,-0.0996 z m 3.0234,0.0957 c 2.8983,0.1822 3.9255,0.6619 4.6484,1.6504 1.8638,2.5488 1.816,3.27776 -0.3535,5.44726 -0.8911,0.89109 -2.4453,1.37366 -5.8144,1.60742 0.6216,-2.60456 1.1059,-5.34199 1.4707,-8.24804 0.019,-0.1532 0.03,-0.30409 0.049,-0.45704 z m -77.2402,42.56637 h 36.5292 11.5586 c -4.684,3.2077 -9.929,5.8599 -15.7109,7.8008 -10.6085,3.5612 -25.9355,3.9165 -35.8633,0.8653 1.854,-1.8089 3.4864,-4.3435 3.4864,-6.0469 z"
       style="fill:#000000;stroke-width:1.14151549"
       inkscape:connector-curvature="0" />
    <path
       sodipodi:nodetypes="ccsscscscccc"
       inkscape:connector-curvature="0"
       id="path817-3-9-8-0"
       d="m 75.166789,410.42387 c -1.97251,-0.4838 -5.4997,-2.0623 -7.8382,-3.5074 -3.9159,-2.4203 -6.82,-7.8197 -36.7744,-68.37515 -37.4061999,-75.6199 -36.8438999,-74.4072 -36.8438999,-79.4524 0,-11.1353 25.0011899,-23.17689 33.1659999,-15.97419 2.8832,2.54349 9.56419,16.27419 35.4017,72.75709 9.68919,21.1814 17.8736,38.5179 18.1875,38.5255 0.3139,0.011 11.853231,-24.7169 25.642731,-54.9433 27.6886,-60.69309 27.2413,-59.97579 36.5699,-58.65029 6.9356,0.9855 18.4124,7.04599 21.8313,11.52839 -0.5658,42.3666 -41.4135,114.86696 -68.0389,151.95965 -5.423201,5.447 -14.015231,7.9201 -21.303731,6.1321 z"
       style="fill:#0066ff;stroke-width:1.14151549" />
    <path
       sodipodi:nodetypes="sscsccsscssccsccccccssccsssccc"
       inkscape:connector-curvature="0"
       id="path819-8-4-6"
       d="m 71.538979,408.14887 c -7.8913,-2.5268 -10.4685,-6.9331 -44.7147,-76.44665 -18.16629,-36.8742 -33.5801899,-69.089 -34.2531999,-71.5883 -2.28859,-8.4993 2.49861,-14.8208 15.9728999,-21.09269 3.7116,-1.7276 8.3218,-2.923 11.2983,-2.9296 7.296,-0.016 11.6221,5.0474 19.7139,23.07509 17.0804,38.0531 40.2185,87.6407 40.8939,87.6407 0.4153,0 10.42244,-21.1894 22.238141,-47.0875 11.8157,-25.8981 22.9481,-50.0285 24.7386,-53.6231 5.5524,-11.14669 13.2596,-12.85099 27.009,-5.97239 10.5399,5.27289 13.912,9.24019 13.912,16.36719 0,4.7657 -3.8638,13.2359 -33.0694,72.4936 -18.1884,36.9036 -34.132,68.81635 -35.4304,70.91725 -4.7817,7.7369 -17.934641,11.5683 -28.309041,8.2464 z m 20.05444,-4.9505 c 5.025301,-2.945 5.323601,-3.4926 38.696701,-71.02035 18.4976,-37.4288 34.209,-70.2088 34.914,-72.8445 1.1883,-4.4432 1.0581,-5.0854 -1.7882,-8.8171 -3.6564,-4.7937 -15.5644,-10.99319 -21.548,-11.21819 -2.3022,-0.086 -5.4206,0.6517 -6.9297,1.6404 -2.4413,1.59959 -23.1045,45.04559 -48.044641,101.01739 -2.58769,5.8074 -5.3831,10.559 -6.2121,10.559 -1.6634,0 -7.4798,-11.997 -32.8354,-67.7268 -9.476,-20.8278 -18.5911,-39.2798 -20.5181,-41.5356 -4.6599,-5.45519 -9.9867,-5.53269 -19.826,-0.2885 -8.1764999,4.3581 -12.6644999,9.1242 -12.6644999,13.4494 0,3.0565 18.1064999,40.9039 51.5441999,107.7413 17.173,34.32645 18.3501,36.33135 22.9464,39.08615 6.7449,4.0425 15.3224,4.0261 22.26534,-0.043 z"
       style="fill:#000000;stroke-width:1.14151549" />
    <path
       sodipodi:nodetypes="ccccscccscscccccccccscccc"
       inkscape:connector-curvature="0"
       id="path817-3-5-9-7-4-2-1"
       d="m 660.66222,288.83486 c -21.7865,-0.118 -28.4364,0.94315 -37.1269,4.92187 -12.6538,5.793 -22.863,19.23061 -25.5508,33.63281 -3.9841,21.3474 1.2618,41.47211 13.8887,53.28321 5.3004,4.95781 5.5117,5.39649 5.5117,11.46292 0,4.7476 0.5491,7.6996 1.8379,9.2773 1.1629,0.5079 2.3572,0.9824 3.5703,1.4356 1.8726,-0.06 2.9962,-0.9286 3.7519,-2.9161 0.6123,-1.6109 1.1133,-4.2122 1.1133,-5.7792 0,-2.7684 0.1542,-2.8216 5.4219,-1.9219 2.9823,0.5094 18.0086,0.9258 33.3906,0.9258 5.2137,0 10.1887,-0.061 14.8653,-0.1446 3.4045,-2.6807 6.4706,-5.66948 9.1718,-8.90818 l -22.3261,0.20703 c -28.4166,0.26391 -31.3079,0.10665 -37.0645,-2.00196 v 0.002 c -11.2218,-4.11051 -19.7687,-13.04518 -23.3379,-24.39258 -1.6056,-5.1042 -1.9627,-9.31086 -1.6406,-19.31836 0.3598,-11.176 0.8097,-13.60652 3.5684,-19.23242 3.6831,-7.5114 11.3301,-14.99524 18.8925,-18.49024 5.0748,-2.3458 6.9382,-2.46679 37.8711,-2.46679 7.2188,0 12.6808,0.007 17.125,0.043 -4.5431,-3.91377 -9.4597,-7.09618 -14.6191,-9.52344 -2.9366,-0.0422 -5.8056,-0.0821 -8.3145,-0.0957 z"
       style="fill:#ff00ff;stroke-width:1.14151549" />
    <path
       sodipodi:nodetypes="sscscccccscsccccc"
       inkscape:connector-curvature="0"
       id="path817-3-5-9-7-4-6-5"
       d="m 641.77742,283.11227 c -11.1629,0.24265 -22.3575,3.5978 -32.4688,10.18555 -41.2812,26.89571 -35.8661,84.75505 6.0274,106.26365 -0.1833,-1.1751 -0.2344,-2.7039 -0.2344,-4.8984 0,-6.79612 -0.081,-6.9739 -6.0332,-12.9258 -6.3847,-6.38471 -11.3945,-15.24164 -13.3047,-23.52734 -1.7582,-7.6261 -1.4621,-28.09676 0.5156,-35.68946 4.4105,-16.9329 17.6854,-30.08609 34.7852,-34.46679 5.1865,-1.32871 11.6284,-1.65861 32.1406,-1.48438 -6.9262,-2.44183 -14.169,-3.61482 -21.4277,-3.45703 z m -11.834,112.3281 v 2.6192 c 0,1.7034 -1.6323,4.2379 -3.4863,6.0468 9.9278,3.0513 25.2547,2.696 35.8632,-0.8652 5.7819,-1.9409 11.027,-4.5931 15.711,-7.8008 h -11.5586 z"
       style="fill:#ffff00;stroke-width:1.14151549" />
  </g>
</svg>
